<?xml version="1.0" encoding="UTF-8"?>
<svg xmlns="http://www.w3.org/2000/svg" viewBox="0 0 1920 947.25">
  <rect x="1803.54" y="830.79" width="116.46" height="116.46"/>
  <path d="m1412.09,140.97c-29.77-15.78-63.94-23.7-102.54-23.7s-73.59,8.15-103.59,24.41c-29.97,16.29-53.36,39.42-70.07,69.39-16.74,30-25.11,65.47-25.11,106.37s8.49,76.49,25.45,106.71c16.97,30.22,40.45,53.5,70.44,69.76,30,16.29,64.28,24.41,102.88,24.41,32.07,0,61.39-6.04,87.9-18.14,26.48-12.09,48.47-28.69,65.9-49.86,17.43-21.14,29.18-45.21,35.22-72.2h-131.48v31.02h-116.46v-63.8h254.21c1.39-10.7,2.1-21.37,2.1-32.07,0-39.99-8.37-74.75-25.12-104.27-16.74-29.54-39.99-52.19-69.73-68.03Zm-45,138.1h-116.46v-53.7h116.46v53.7Z"/>
  <path d="m1359.79,546.21c-26.51,0-50.01,5.48-70.47,16.4-20.46,10.93-36.72,25.2-48.81,42.88v-57.91h-136.71v399.67h136.71l.03-288.09h129.62l.08,288.09h136.71v-234.34c0-51.14-13.25-91.73-39.76-121.72-26.51-30-62.3-44.98-107.39-44.98Z"/>
  <path d="m1672.77,672.48h71.83v-124.9h-71.83V2.19h-136.71v796.49c0,99.05,49.98,148.57,149.96,148.57h59.29v-116.46h-72.54v-158.31Z"/>
  <path d="m136.71,327.92h67.65c39.99,0,73.82-7.32,101.49-21.97,27.64-14.64,48.36-34.17,62.07-58.61,13.71-24.41,20.57-51.48,20.57-81.25,0-32.07-6.98-60.42-20.91-85.09-13.96-24.63-34.77-43.93-62.44-57.9-27.67-13.93-61.27-20.92-100.78-20.92h-67.65v116.46h116.46v103.27h-116.46v-103.27H0v399.67h136.71v-190.41Z"/>
  <path d="m334.41,452.04c-27.67-13.93-61.27-20.92-100.78-20.92h-67.65v116.46h116.46v103.27h-116.46v-103.27H29.26v399.67h136.72v-190.41h67.65c39.99,0,73.82-7.32,101.49-21.97,27.64-14.64,48.36-34.17,62.07-58.61,13.71-24.41,20.57-51.48,20.57-81.25,0-32.07-6.97-60.42-20.91-85.09-13.96-24.63-34.77-43.93-62.44-57.9Z"/>
  <path d="m756.9,570.61c-30.93-16.26-65.93-24.41-104.98-24.41s-74.05,8.15-104.98,24.41c-30.91,16.29-55.31,39.53-73.22,69.76-17.91,30.23-26.85,65.56-26.85,106s8.82,76.49,26.51,106.71c17.65,30.23,41.94,53.5,72.88,69.76,30.9,16.29,65.9,24.41,104.98,24.41s74.16-8.12,105.32-24.41c31.14-16.26,55.65-39.65,73.56-70.1,17.91-30.45,26.87-65.9,26.87-106.37s-8.97-75.78-26.87-106c-17.91-30.22-42.31-53.47-73.22-69.76Zm-46.73,234.35h-116.47v-116.46h116.47v116.46Z"/>
  <rect x="912.04" y="600.4" width="136.71" height="346.85"/>
  <rect x="446.73" y="171.47" width="136.71" height="346.85"/>
  <rect x="446.73" y="2.19" width="136.71" height="116.46"/>
  <polygon points="641.67 117.28 779.15 310.28 647.32 518.32 798.92 518.32 855.33 417.53 926.54 518.32 1081.66 518.32 796.8 117.28 641.67 117.28"/>
  <rect x="965.2" y="117.28" width="116.46" height="116.46"/>
</svg>