<svg data-name="Group 10956" xmlns="http://www.w3.org/2000/svg" xmlns:xlink="http://www.w3.org/1999/xlink" width="2055.795" height="283.358" viewBox="0 0 2055.795 283.358">
  <rect data-name="Rectangle 6957" width="63.939" height="63.936" transform="translate(1991.855 219.422)"/>
  <rect data-name="Rectangle 6958" width="75.055" height="283.358" transform="translate(843.301)"/>
  <g data-name="Group 10955">
    <g data-name="Group 10954">
      <path data-name="Path 1161" d="M378.72,35.108Q354.2,22.113,322.426,22.1q-32.16,0-56.872,13.4a95.406,95.406,0,0,0-38.471,38.1Q213.3,98.3,213.3,131.991t13.975,58.587a96.2,96.2,0,0,0,38.671,38.3q24.706,13.415,56.483,13.4,26.409,0,48.255-9.955a99.672,99.672,0,0,0,36.181-27.378A93.643,93.643,0,0,0,426.2,165.3H354.013v17.031H290.076V147.31H429.64a136.412,136.412,0,0,0,1.155-17.609q0-32.932-13.792-57.243a93.9,93.9,0,0,0-38.282-37.35m-24.708,75.819H290.076V81.447h63.936Z" transform="translate(396.525 41.083)"/>
      <path data-name="Path 1162" d="M697.272,22.1q-21.829,0-38.686,9.006a73.919,73.919,0,0,0-26.8,23.544v-31.8H556.731V242.275h75.055L631.8,84.117h71.161L703,242.275H778.06V113.622q0-42.113-21.829-66.827T697.272,22.1" transform="translate(1034.978 41.083)"/>
      <path data-name="Path 1163" d="M720.768,132.507h39.049V63.936H720.768V0H645.327V201.793q0,81.564,82.328,81.565h32.55V219.422H720.768Z" transform="translate(1199.68)"/>
      <path data-name="Path 1164" d="M167.528,11.485Q144.743.009,112.2,0H75.058V63.939H139v56.694H75.058V63.939H0V283.361H75.058V178.826H112.2q32.932,0,55.72-12.059Q190.678,154.708,202,134.592a89.518,89.518,0,0,0,11.293-44.609q0-26.409-11.482-46.714-11.493-20.285-34.28-31.784"/>
      <path data-name="Path 1165" d="M522.286,11.485Q499.5.009,466.958,0H429.816V63.939h63.939v56.694H429.816V63.939H354.758V283.361h75.058V178.826h37.142q32.932,0,55.719-12.059,22.759-12.059,34.077-32.175a89.518,89.518,0,0,0,11.293-44.609q0-26.409-11.482-46.714-11.493-20.285-34.28-31.784" transform="translate(659.505)"/>
      <path data-name="Path 1166" d="M605.156,35.5q-25.47-13.389-57.632-13.4T489.888,35.5a100.2,100.2,0,0,0-40.2,38.3q-14.752,24.891-14.738,58.2,0,33.7,14.552,58.584a98.6,98.6,0,0,0,40.012,38.3q25.448,13.415,57.632,13.4,32.16,0,57.821-13.4a99.407,99.407,0,0,0,40.387-38.485q14.748-25.079,14.755-58.4T645.356,73.8a100.193,100.193,0,0,0-40.2-38.3M579.5,164.155H515.562V100.219H579.5Z" transform="translate(808.587 41.083)"/>
      <rect data-name="Rectangle 6959" width="75.055" height="190.425" transform="translate(1484.684 92.933)"/>
      <rect data-name="Rectangle 6960" width="75.055" height="63.936" transform="translate(1484.684)"/>
      <rect data-name="Rectangle 6961" width="75.055" height="190.425" transform="translate(245.259 92.933)"/>
      <rect data-name="Rectangle 6962" width="75.055" height="63.936" transform="translate(245.259)"/>
      <path data-name="Path 1167" d="M123.217,22.1,198.7,128.06,126.319,242.275h83.229l30.966-55.334,39.094,55.334h85.165L208.385,22.1Z" transform="translate(229.064 41.082)"/>
      <rect data-name="Rectangle 6963" width="63.939" height="63.936" transform="translate(529.898 63.182)"/>
    </g>
  </g>
  <rect data-name="Rectangle 6993" width="63.939" height="63.936" transform="translate(1991.855 219.422)"/>
</svg>
