<svg data-name="Group 10959" xmlns="http://www.w3.org/2000/svg" xmlns:xlink="http://www.w3.org/1999/xlink" width="1054.089" height="518.842" viewBox="0 0 1054.089 518.842">

  <rect data-name="Rectangle 6965" width="63.939" height="63.936" transform="translate(990.15 454.905)"/>
  <g data-name="Group 10958">
    <g data-name="Group 10957">
      <path data-name="Path 1168" d="M378.72,35.108Q354.2,22.113,322.426,22.1q-32.16,0-56.872,13.4a95.442,95.442,0,0,0-38.471,38.1Q213.3,98.3,213.3,131.991t13.975,58.584a96.2,96.2,0,0,0,38.671,38.3q24.706,13.415,56.483,13.4,26.409,0,48.255-9.958a99.634,99.634,0,0,0,36.181-27.375A93.643,93.643,0,0,0,426.2,165.3H354.013v17.028H290.076V147.307H429.64a136.367,136.367,0,0,0,1.155-17.606q0-32.932-13.792-57.246A93.875,93.875,0,0,0,378.72,35.108m-24.708,75.819H290.076V81.447h63.936Z" transform="translate(396.525 41.083)"/>
      <path data-name="Path 1169" d="M352.5,104.464q-21.829,0-38.688,9.006a73.933,73.933,0,0,0-26.8,23.544v-31.8H211.957V324.641h75.055l.017-158.159H358.19l.04,158.159h75.055V195.987q0-42.113-21.829-66.827t-58.959-24.7" transform="translate(394.034 194.201)"/>
      <path data-name="Path 1170" d="M370.016,367.991h39.435V299.42H370.016V0H294.961V437.277q0,81.564,82.331,81.565h32.55V454.905H370.016Z" transform="translate(548.34)"/>
      <path data-name="Path 1171" d="M75.055,178.824H112.2q32.932,0,55.72-12.059,22.764-12.059,34.077-32.175a89.49,89.49,0,0,0,11.3-44.609q0-26.409-11.485-46.711t-34.28-31.787Q144.74.006,112.2,0H75.055V63.936h63.939v56.694H75.055V63.936H0V283.358H75.055Z"/>
      <path data-name="Path 1172" d="M173.146,93.85q-22.789-11.476-55.331-11.485H80.676V146.3h63.936V203H80.676V146.3H5.618V365.723H80.676V261.191h37.139q32.936,0,55.72-12.059,22.764-12.059,34.077-32.176a89.49,89.49,0,0,0,11.3-44.609q0-26.409-11.482-46.714-11.5-20.285-34.28-31.784" transform="translate(10.444 153.119)"/>
      <path data-name="Path 1173" d="M256.017,117.861q-25.474-13.389-57.632-13.4t-57.635,13.4a100.211,100.211,0,0,0-40.2,38.3q-14.748,24.891-14.738,58.2,0,33.7,14.552,58.584a98.635,98.635,0,0,0,40.012,38.3q25.448,13.414,57.635,13.4,32.16,0,57.821-13.4a99.424,99.424,0,0,0,40.387-38.485q14.748-25.079,14.753-58.4t-14.753-58.2a100.211,100.211,0,0,0-40.2-38.3M230.363,246.52H166.424V182.584h63.939Z" transform="translate(159.525 194.201)"/>
      <rect data-name="Rectangle 6966" width="75.052" height="190.425" transform="translate(500.716 328.416)"/>
      <rect data-name="Rectangle 6967" width="75.055" height="190.425" transform="translate(245.259 92.933)"/>
      <rect data-name="Rectangle 6968" width="75.055" height="63.936" transform="translate(245.259)"/>
      <path data-name="Path 1174" d="M123.217,22.1,198.7,128.06,126.319,242.275h83.229l30.966-55.334,39.094,55.334h85.165L208.385,22.1Z" transform="translate(229.064 41.082)"/>
      <rect data-name="Rectangle 6969" width="63.939" height="63.936" transform="translate(529.898 63.182)"/>
    </g>
  </g>
</svg>
